{"accessors" : [{"bufferView" : 0, "byteOffset" : 0, "componentType" : 5123, "count" : 133560, "type" : "SCALAR", "max" : [24991], "min" : [0]}, {"bufferView" : 1, "byteOffset" : 0, "componentType" : 5126, "count" : 24992, "type" : "VEC3", "max" : [0.009209999814629555, 0.008559999987483025, 0.01865999959409237], "min" : [-0.009209999814629555, -0.008559999987483025, -0.01865999959409237], "name" : "POSITION"}, {"bufferView" : 1, "byteOffset" : 12, "componentType" : 5126, "count" : 24992, "type" : "VEC2", "max" : [0.682200014591217, 0.7171000242233276], "min" : [-0.9550999999046326, 0.28289997577667236], "name" : "TEXCOORD_0"}, {"bufferView" : 1, "byteOffset" : 20, "componentType" : 5126, "count" : 24992, "type" : "VEC3", "max" : [1.0000044107437134, 1.0000044107437134, 1.0000044107437134], "min" : [-1.0000044107437134, -1.0000044107437134, -1.0000044107437134], "name" : "NORMAL"}, {"bufferView" : 0, "byteOffset" : 267120, "componentType" : 5123, "count" : 47184, "type" : "SCALAR", "max" : [29354], "min" : [0]}, {"bufferView" : 2, "byteOffset" : 0, "componentType" : 5126, "count" : 29355, "type" : "VEC3", "max" : [0.008449999615550041, 0.008539999835193157, 0.006430000066757202], "min" : [-0.00839999970048666, -0.006670000031590462, 0.005160000175237656], "name" : "POSITION"}, {"bufferView" : 2, "byteOffset" : 12, "componentType" : 5126, "count" : 29355, "type" : "VEC2", "max" : [0.7595999836921692, 1.9254999160766602], "min" : [-1.7604999542236328, -0.9255000352859497], "name" : "TEXCOORD_0"}, {"bufferView" : 2, "byteOffset" : 20, "componentType" : 5126, "count" : 29355, "type" : "VEC3", "max" : [0.9993048310279846, 0.9998811483383179, 1.0000044107437134], "min" : [-0.9993048310279846, -0.9998811483383179, -1.0000042915344238], "name" : "NORMAL"}], "asset" : {"generator" : "Aspose.3D 25.3.0", "version" : "2.0"}, "buffers" : [{"uri" : "data:application/octet-stream;base64,", "byteLength" : 2100604}], "bufferViews" : [{"buffer" : 0, "byteOffset" : 0, "byteLength" : 361488, "target" : 34963}, {"buffer" : 0, "byteOffset" : 361492, "byteLength" : 799744, "byteStride" : 32, "target" : 34962}, {"buffer" : 0, "byteOffset" : 1161240, "byteLength" : 939360, "byteStride" : 32, "target" : 34962}], "meshes" : [{"primitives" : [{"attributes" : {"POSITION" : 1, "TEXCOORD_0" : 2, "NORMAL" : 3}, "indices" : 0, "mode" : 4}], "name" : ""}, {"primitives" : [{"attributes" : {"POSITION" : 5, "TEXCOORD_0" : 6, "NORMAL" : 7}, "indices" : 4, "mode" : 4}], "name" : ""}], "nodes" : [{"mesh" : 0, "name" : "Object003"}, {"mesh" : 1, "name" : "Object001"}], "scene" : 0, "scenes" : [{"nodes" : [0, 1]}]}